<svg width="30" height="30" viewBox="0 0 30 30" fill="none" xmlns="http://www.w3.org/2000/svg">
<g id="&#208;&#184;&#208;&#189;&#209;&#129;&#209;&#130;&#208;&#176;">
<g id="Group">
<path id="Vector" d="M14.9206 8.83594C11.2169 8.83594 8.14813 11.8518 8.14813 15.6084C8.14813 19.365 11.164 22.3809 14.9206 22.3809C18.6772 22.3809 21.6931 19.3121 21.6931 15.6084C21.6931 11.9047 18.6243 8.83594 14.9206 8.83594ZM14.9206 19.947C12.5397 19.947 10.582 17.9894 10.582 15.6084C10.582 13.2275 12.5397 11.2698 14.9206 11.2698C17.3016 11.2698 19.2592 13.2275 19.2592 15.6084C19.2592 17.9894 17.3016 19.947 14.9206 19.947Z" fill="#D62B34"/>
<path id="Vector_2" d="M21.9577 10.2114C22.8051 10.2114 23.4921 9.52439 23.4921 8.67697C23.4921 7.82955 22.8051 7.14258 21.9577 7.14258C21.1103 7.14258 20.4233 7.82955 20.4233 8.67697C20.4233 9.52439 21.1103 10.2114 21.9577 10.2114Z" fill="#D62B34"/>
<path id="Vector_3" d="M25.9259 4.70886C24.5503 3.28029 22.5926 2.53955 20.3704 2.53955H9.47091C4.86773 2.53955 1.79895 5.60833 1.79895 10.2115V21.0581C1.79895 23.3332 2.53969 25.2909 4.02117 26.7194C5.44974 28.0951 7.35451 28.7829 9.52382 28.7829H20.3175C22.5926 28.7829 24.4974 28.0422 25.873 26.7194C27.3016 25.3438 28.0423 23.3861 28.0423 21.111V10.2115C28.0423 7.98929 27.3016 6.08452 25.9259 4.70886ZM25.7143 21.111C25.7143 22.7512 25.1323 24.0739 24.1799 24.9734C23.2275 25.8729 21.9048 26.3491 20.3175 26.3491H9.52382C7.93652 26.3491 6.61376 25.8729 5.66138 24.9734C4.709 24.021 4.23281 22.6983 4.23281 21.0581V10.2115C4.23281 8.62421 4.709 7.30146 5.66138 6.34907C6.56085 5.4496 7.93652 4.97341 9.52382 4.97341H20.4233C22.0106 4.97341 23.3333 5.4496 24.2857 6.40198C25.1852 7.35437 25.7143 8.67712 25.7143 10.2115V21.111Z" fill="#D62B34"/>
</g>
</g>
</svg>
