<svg width="30" height="32" viewBox="0 0 30 32" fill="none" xmlns="http://www.w3.org/2000/svg">
<path id="&#208;&#178;&#208;&#176;&#208;&#185;&#208;&#177;&#208;&#181;&#209;&#128;" d="M26.6169 3.08066C25.8322 2.35779 22.6566 0.0532752 15.5762 0.0223835C15.5762 0.0223835 7.22928 -0.478061 3.16395 3.25365C0.902677 5.51492 0.105673 8.83268 0.0191764 12.9413C-0.0673201 17.0499 -0.172352 24.748 7.24782 26.8363H7.254L7.24782 30.0243C7.24782 30.0243 7.19839 31.3156 8.051 31.5751C9.0766 31.8964 9.68208 30.914 10.6644 29.8575C11.2019 29.2768 11.9433 28.4242 12.5056 27.7754C17.5842 28.2017 21.4827 27.2256 21.9275 27.0835C22.9531 26.7498 28.7546 26.0084 29.6937 18.3102C30.6699 10.3649 29.2241 5.3481 26.6169 3.08066ZM27.4757 17.7295C26.6787 24.1549 21.977 24.5627 21.112 24.8407C20.7413 24.9581 17.3123 25.8107 13.006 25.5327C13.006 25.5327 9.79329 29.4065 8.7924 30.4136C8.46495 30.741 8.10661 30.7101 8.11279 30.0614C8.11279 29.6351 8.1375 24.7666 8.1375 24.7666C8.13132 24.7666 8.13132 24.7666 8.1375 24.7666C1.84796 23.0243 2.21866 16.4691 2.28662 13.0401C2.35458 9.61115 3.00331 6.80001 4.91859 4.90944C8.35992 1.78938 15.4465 2.25276 15.4465 2.25276C21.4333 2.27747 24.3 4.08154 24.9673 4.68702C27.1729 6.57759 28.2974 11.1001 27.4757 17.7295ZM18.8878 12.7374C18.9125 13.2687 18.1155 13.3058 18.0908 12.7745C18.0228 11.4152 17.3865 10.7541 16.0766 10.68C15.5453 10.6491 15.5947 9.8521 16.1199 9.88299C17.8437 9.97567 18.8013 10.9642 18.8878 12.7374ZM20.142 13.4355C20.2038 10.8159 18.5665 8.76472 15.4588 8.53612C14.9337 8.49905 14.9893 7.70204 15.5144 7.73911C19.0979 7.9986 21.007 10.4638 20.939 13.4541C20.9328 13.9854 20.1296 13.9607 20.142 13.4355ZM23.0458 14.2634C23.052 14.7948 22.2488 14.8009 22.2488 14.2696C22.2117 9.23427 18.8569 6.49109 14.7854 6.4602C14.2602 6.45402 14.2602 5.6632 14.7854 5.6632C19.3388 5.69409 23.0026 8.83886 23.0458 14.2634ZM22.3477 20.3244V20.3367C21.6804 21.5106 20.4324 22.8081 19.1473 22.3941L19.1349 22.3756C17.8313 22.011 14.7607 20.4294 12.8207 18.8848C11.8198 18.094 10.9054 17.1611 10.2011 16.2652C9.56469 15.4682 8.92215 14.5229 8.29813 13.3861C6.98215 11.0074 6.69177 9.94478 6.69177 9.94478C6.27782 8.65969 7.56909 7.41166 8.74915 6.7444H8.76151C9.32992 6.44784 9.87361 6.5467 10.2381 6.98536C10.2381 6.98536 11.0042 7.89975 11.3317 8.35077C11.6406 8.77089 12.0546 9.44433 12.2708 9.82121C12.6477 10.4946 12.4129 11.1804 12.0422 11.4646L11.3008 12.0578C10.9239 12.3605 10.9734 12.9227 10.9734 12.9227C10.9734 12.9227 12.0731 17.0807 16.1817 18.1311C16.1817 18.1311 16.7439 18.1805 17.0466 17.8036L17.6398 17.0622C17.924 16.6915 18.6098 16.4567 19.2832 16.8336C20.1914 17.3464 21.3468 18.1434 22.1129 18.8663C22.5454 19.2184 22.6442 19.756 22.3477 20.3244Z" fill="#D62B34"/>
</svg>
