<svg width="100" height="24" viewBox="0 0 100 24" fill="none" xmlns="http://www.w3.org/2000/svg">
<g id="&#208;&#186;&#209;&#128;&#208;&#176;&#209;&#129;&#209;&#129;&#208;&#189;&#208;&#190;&#208;&#181;-&#208;&#187;&#208;&#190;&#208;&#179;&#208;&#190;-&#208;&#161;&#208;&#157; 1" clip-path="url(#clip0_261_1206)">
<g id="Group">
<path id="Vector" d="M3.90769 0.960812L0 1.85297V7.24022V12.5932L4.46154 14.9608C6.92308 16.2304 8.92308 17.3971 8.92308 17.5C8.92308 17.6373 7.23077 17.4657 5.16923 17.1226C0.307692 16.299 0.523077 16.299 0.953846 17.2255C1.6 18.5638 4.27692 21.1716 6.15385 22.2696L7.96923 23.3677L9.44615 22.5098C11.6 21.3089 13.9692 19.0785 15.0462 17.2598C15.9077 15.853 16 15.3726 16 13.1765V10.6716L11.6308 8.33826C9.23077 7.06866 7.47692 5.97062 7.72308 5.90199C7.96923 5.86768 9.90769 6.10787 12.0923 6.45101L16 7.10297V4.46081V1.85297L12.5538 1.09807C10.6462 0.720615 8.8 0.308851 8.46154 0.240223C8.12308 0.171597 6.09231 0.480419 3.90769 0.960812Z" fill="#CB0B0B"/>
<path id="Vector_2" d="M20.4615 10.7057C19.4461 11.3234 19.0769 12.0783 19.0769 13.5538C19.0769 15.1665 19.5385 15.7841 21.7846 17.1567C23.4461 18.1861 23.6923 18.7351 22.6769 19.2498C21.9692 19.593 20.9231 19.4214 19.3231 18.7008C18.8615 18.4949 18.7692 18.6665 18.7692 19.8332V21.24L20.4 21.5832C23.6 22.3038 25.8461 20.9655 25.8461 18.289C25.8461 16.539 25.3231 15.8528 23.0769 14.5832C22.2461 14.1028 21.5385 13.4851 21.5385 13.2106C21.5385 12.49 22.8923 12.2155 24.0308 12.6616C25.2923 13.142 25.2 13.1763 25.5692 12.1126C25.8154 11.3577 25.7846 11.0832 25.3538 10.74C24.6769 10.191 21.3231 10.1567 20.4615 10.7057Z" fill="#CB0B0B"/>
<path id="Vector_3" d="M27.0769 11.4951C27.0769 12.6618 27.1077 12.6961 28.3077 12.6961H29.5384V17.1569V21.6177H30.9231H32.3077V17.1569V12.6961H33.5384C34.7384 12.6961 34.7692 12.6618 34.7692 11.4951V10.2941H30.9231H27.0769V11.4951Z" fill="#CB0B0B"/>
<path id="Vector_4" d="M37.1385 15.4069C36.3385 18.2206 35.6 20.7941 35.5077 21.103C35.3231 21.5834 35.5077 21.652 36.8 21.549C38.0923 21.4461 38.3077 21.3432 38.4616 20.5883C38.6154 19.799 38.8 19.7304 40.4 19.6275C42.1231 19.5245 42.1846 19.5589 42.4923 20.554C42.8 21.5147 42.9539 21.6177 44.1846 21.6177C44.9231 21.6177 45.5385 21.5147 45.5077 21.3432C45.5077 21.2059 44.7693 18.701 43.9077 15.7843L42.3077 10.4657L40.4616 10.3628L38.5846 10.2598L37.1385 15.4069ZM41.1077 14.4461C41.7231 17.0539 41.6923 17.1569 40.4616 17.1569C39.2616 17.1569 39.2616 17.1569 39.6616 15.4412C39.8154 14.7892 40.0308 13.7941 40.1539 13.2451C40.4 12.0098 40.5539 12.2157 41.1077 14.4461Z" fill="#CB0B0B"/>
<path id="Vector_5" d="M47.6308 15.9559L47.7231 21.6177H48.9231H50.1231L50.2154 19.4559L50.3077 17.3285L51.7846 17.2255C53.1692 17.1226 53.2308 17.0539 53.2308 16.0932C53.2308 15.1324 53.2 15.0981 51.6923 15.0981H50.1538V13.8971V12.6961H51.8461H53.5385V11.4951V10.2941H50.5538H47.5385L47.6308 15.9559Z" fill="#CB0B0B"/>
<path id="Vector_6" d="M55.0769 15.9559V21.6177H56.4615H57.8461V19.3873V17.1569H59.3846C60.8923 17.1569 60.9231 17.1226 60.9231 16.1275C60.9231 15.1324 60.8923 15.0981 59.3846 15.0981H57.8461V13.9314V12.7304L59.4769 12.6275C61.0461 12.5245 61.0769 12.4902 61.1692 11.3922L61.2615 10.2941H58.1846H55.0769V15.9559Z" fill="#CB0B0B"/>
<path id="Vector_7" d="M62.7692 15.9559V21.6177H64H65.2L65.2923 19.6275C65.4154 17.0539 65.9385 17.0539 67.3231 19.6275L68.3692 21.6177H69.8769H71.3846L69.9692 19.2157L68.5538 16.8481L69.3538 15.7843C69.8461 15.0981 70.1538 14.2745 70.1538 13.5883C70.1538 11.2549 68.6461 10.2941 64.8615 10.2941H62.7692V15.9559ZM67.0154 12.7647C67.9385 13.7941 66.8615 15.8187 65.6615 15.3039C65.2308 15.1324 65.0461 13.0049 65.4461 12.5932C65.7538 12.2157 66.6154 12.3187 67.0154 12.7647Z" fill="#CB0B0B"/>
<path id="Vector_8" d="M72.6154 15.9559V21.6177H75.5384H78.4615V20.451V19.25L76.8615 19.1471C75.2923 19.0441 75.2307 19.0098 75.2307 18.0147C75.2307 17.0196 75.2923 16.9853 76.7692 16.8138C78.1538 16.6422 78.3077 16.5736 78.4 15.7157C78.4923 14.8236 78.4307 14.7892 76.8615 14.6863C75.3538 14.5834 75.2307 14.5147 75.2307 13.7255C75.2307 12.9363 75.3538 12.8677 76.8615 12.7647L78.4615 12.6618V11.4608V10.2941H75.5384H72.6154V15.9559Z" fill="#CB0B0B"/>
<path id="Vector_9" d="M80.9231 15.9559V21.6177H82H83.0462L83.1385 17.6373L83.2308 13.6226L85.0769 17.603L86.9231 21.6177H88.7077H90.4616V15.9216V10.2598L89.3231 10.3628L88.1539 10.4657L88.2462 14.1373C88.2769 16.1961 88.2154 17.8432 88.0923 17.8432C87.9385 17.8432 87.0769 16.1618 86.1539 14.1373L84.4616 10.4657L82.7077 10.3628L80.9231 10.2598V15.9559Z" fill="#CB0B0B"/>
<path id="Vector_10" d="M92.3077 11.4951C92.3077 12.6618 92.3384 12.6961 93.5384 12.6961H94.7692V17.1569V21.6177H96H97.2L97.2923 17.2255L97.3846 12.8677L98.7077 12.7647C99.7231 12.6618 100 12.5245 100 12.0098C100 10.3628 99.8461 10.2941 95.9692 10.2941H92.3077V11.4951Z" fill="#CB0B0B"/>
</g>
</g>
<defs>
<clipPath id="clip0_261_1206">
<rect width="100" height="23.3333" fill="white"/>
</clipPath>
</defs>
</svg>
