<?xml version="1.0" encoding="UTF-8"?>
<svg id="svg1" xmlns="http://www.w3.org/2000/svg" viewBox="0 0 760.3 1080.4">
    <defs>
        <style>
            .cls-1, .cls-2 {
            stroke-width: 0px;
            }

            .cls-2 {
            fill: rgba(255, 255, 255, 0.8);
            }
        </style>
    </defs>
    <g id="g13">
        <path id="path1" class="cls-1"
              d="m496.97,0c-2.2,0-2.43.37-2.17,3.5,1.42,17.07-.86,17.52-16.43,3.25-1.35-1.24-2.66-2.25-2.91-2.25-1.2,0-.19,6.98,1.57,10.86,2.91,6.41,2.66,9.94-.77,10.75-1.51.36-4.16,1.97-5.88,3.6-3.45,3.25-8.61,3.29-16.36.12-1.92-.78-4.51-1.17-5.76-.86-1.25.31-3.59-.11-5.2-.95-2.89-1.49-2.93-1.48-2.74,1.09.27,3.81-2.42,5.21-6.54,3.4-1.8-.79-6.2-1.5-9.78-1.56-9.59-.18-9.72-.22-10.77-3.2-1.47-4.18-4.38-7.18-7.92-8.18-5.23-1.48-5.91.56-2.79,8.35,4.31,10.77-1.81,18.13-9.04,10.9-2.05-2.05-4.8-.73-5.28,2.53-.38,2.56-2.35,2.74-5.72.53-2.06-1.35-2.96-1.42-5.42-.4-2.65,1.1-3.49.91-8.47-1.94-7.77-4.45-12.59-4.07-14.04,1.11-1.37,4.88-3.69,7.25-9.6,9.79-5.2,2.24-5.78,3.35-3.4,6.51,4.32,5.71.06,5.91-9.39.43-10.22-5.92-12.63-3.67-5.98,5.57,4.19,5.81,2.92,15.36-1.54,11.65-1.06-.88-2.7-1.09-4.86-.62-6.39,1.38-15.96,1.73-17.07.62-2.96-2.96-12.2,1.46-12.87,6.16-.28,1.96-.93,2.26-4.93,2.29-2.7.03-5.76.8-7.37,1.85-1.52.99-4.28,1.8-6.15,1.8s-4.37.79-5.57,1.76l-2.18,1.76,2.76,8.66c3.53,11.08,3.3,12.55-2.38,15.27-4.1,1.96-4.55,2.54-5.1,6.5-.33,2.39-.92,5.07-1.3,5.96-2.16,4.93,10.7,11.84,14.82,7.96,2.52-2.37,5.82-2.69,7.45-.73,1.29,1.56.51,2.66-1.88,2.66-.92,0-2.49.9-3.49,2s-2.36,2-3.04,2-2.52.67-4.09,1.49-4.28,1.5-6.01,1.5c-5.16.01-5.3,2.86-.49,10.51,6.93,11.01,8.32,15.5,4.82,15.5-2.42,0-5.23,3.91-4.1,5.7,1.16,1.84,7.89,2.41,10.91.91,2.75-1.36,17.33-1.5,17.84-.17.76,2-1.27,5.55-3.18,5.55-1.05,0-4.01.93-6.58,2.07-3.15,1.39-5.64,1.86-7.63,1.42-2.86-.63-4.12.67-1.95,2.01,1.82,1.12,1.03,2.98-2.01,4.7-3.53,2.01-4.06,7.7-1.52,16.08,1.12,3.68,1.19,5.35.33,7.25-1.39,3.06-.62,3.97,2.12,2.5,1.8-.96,2.22-.79,3,1.25,1.11,2.93,6.44,8.37,8.98,9.18,2.39.76,3.05,3.32,3.11,12.03.09,13.29,7.68,25.89,13.37,22.17,2.42-1.59,2.56-1.55,4.62,1.35,1.45,2.03,2.98,2.99,4.81,3,6.05.03,10.56,2.58,13.68,7.73,5.5,9.08,7.57,10.11,12.5,6.26,1.38-1.08,3.45-1.97,4.62-1.98,5.39-.06,8.68-5.42,9.94-16.24,1.16-9.91,14-10.42,25.03-1,6.42,5.48,6,8.26-2.66,17.84-3.56,3.93-6.98,13.87-5.56,16.16.28.45.77,6.42,1.1,13.27l.6,12.45-3.45,7.79c-3.33,7.52-3.38,7.84-1.54,8.99,3.2,2,2.29,3.71-1.96,3.71-6.61,0-8.44,21.17-3.37,39,1.03,3.63,1.61,10.25,1.72,19.5.08,7.7.53,24.84.99,38.08.97,27.93.71,30.13-4.2,35.56-4.04,4.47-27.21,24.46-31.48,27.15-1.5.95-3.39,3.01-4.21,4.58-2.59,5-26.83,14.13-37.5,14.12-5.86,0-9.94-2.51-13.64-8.36-1.6-2.53-4.04-5-5.42-5.51s-4.53-1.64-7.01-2.53c-2.48-.89-6.87-3.75-9.76-6.36l-5.26-4.75-1.43-11.22c-.79-6.17-1.95-12.17-2.57-13.35-.72-1.35-.9-4.22-.48-7.79.59-5.05.38-6.08-1.96-9.52-1.44-2.12-2.87-5.11-3.18-6.65-.43-2.16-1.53-3.16-4.86-4.43-4.8-1.83-15.45-11.71-19.68-18.26-1.49-2.3-5.68-6.52-9.33-9.38-14.75-11.59-20.82-23.32-18.56-35.89,1.99-11.07,1.95-11.47-1.14-11.83-1.72-.2-3.94.59-6,2.14-1.8,1.35-8.67,4.93-15.27,7.95-17.44,7.99-23.22,10.63-30.5,13.94-4.76,2.17-9.11,3.22-16.27,3.95-12.4,1.26-19.46,3.53-21.26,6.84-.75,1.38-3.14,6.13-5.31,10.56-4.43,9.05-10.17,18.37-12.51,20.32-.86.71-3.2,4.29-5.22,7.96-2.01,3.67-4.98,8.33-6.6,10.37q-2.93,3.71-4.29,26.5c-1.56,26.17-1.95,27.59-9.86,35.21-2.98,2.87-6.04,6.38-6.8,7.8-.76,1.42-5.66,5.4-10.89,8.84-13.69,9-13.13,8.04-14.11,23.98-.91,14.92-3.05,26.99-5.63,31.83-1.61,3.01-2.21,6.45-4.2,24.14-.5,4.4-1.39,10.42-1.98,13.39-.59,2.96-1.08,13.59-1.08,23.63,0,20.35-.56,17.88,8.52,37.75,1.76,3.85,1.74,7.65-.14,28.19-1.05,11.39,2.11,29.21,6.48,36.59,1.16,1.95,2.99,6.9,4.07,11,4.4,16.69,6.18,22.62,7.78,25.95,2.72,5.66,2.9,14.88.4,19.79-2.97,5.82-2.83,8.58.39,7.96,1.74-.33,2.5-.04,2.5.98,0,.8.96,2.81,2.14,4.46,1.3,1.83,2.14,4.52,2.14,6.9,0,3.87,2.55,5.62,4.23,2.9,2.15-3.49,7.92.33,9.58,6.34,1.56,5.65,6.51,9.99,10.63,9.32,3.98-.65,11.21,2.65,18.61,8.5,2.65,2.09,6.7,4.74,9,5.89s6.2,3.16,8.68,4.47c4.92,2.62,7.56,2.97,11.36,1.53,2.63-1,5.43.87,4.22,2.82-2.95,4.77,4.91,9.38,10.14,5.95,5.39-3.54,14.83-5.34,20.94-4,10.93,2.39,15.24,2.4,20.08.06l4.57-2.21,1.84,2.28c1.01,1.25,1.84,2.93,1.84,3.74,0,1.66,4.84,10.27,5.85,10.4.36.05,1.64.2,2.84.33,2.02.23,11.31,8.97,11.31,10.65,0,.41,1.31,1.2,2.9,1.76,3.46,1.2,6.1,8.64,6.1,17.16,0,5.57-.05,5.64-9.96,13.88l-4.04,3.37v7.96c0,6.77-.39,8.62-2.61,12.41-2.34,3.99-2.48,4.77-1.36,7.48.94,2.27.97,3.31.11,4.17-2.54,2.54-1.08,10.46,4.36,23.74,3.92,9.59,7.5,11.96,7.5,4.98,0-5.07,4.74-6.44,8.44-2.44,1.29,1.39,4.31,3.1,6.7,3.79,3.18.92,4.44,1.83,4.66,3.39.17,1.17,1.41,2.85,2.75,3.73,1.49.98,2.44,2.55,2.44,4.05,0,3.24,4.07,5.95,7.61,5.06,2.19-.55,3.6.19,8.48,4.43,3.22,2.8,8.34,6.19,11.38,7.54,4.39,1.94,6.15,3.45,8.5,7.28,1.63,2.66,4.15,5.46,5.59,6.23,5.41,2.9,6.73,7.8,6.03,22.39l-.62,13.07,2.76,3.12c3.92,4.42,10.74,7.73,13.21,6.4,3.06-1.64,8.69-1.2,12.57.98l3.58,2.01,1.45-3.47c2.29-5.48,11.93-7.77,16.9-4.01,2.5,1.89,8.64,1.88,13.21-.03,4.44-1.86,7-1.91,8.05-.16,1.35,2.27,6.38,5.08,12.22,6.83,10.16,3.04,10.93,2.8,21.7-6.65,9.83-8.62,16.91-12.97,20.11-12.32,1.73.35,1.93,1.53,1.14,6.65-.53,3.44,2.23,4.94,5.82,3.14,8.42-4.21,10.16-9.15,6.14-17.43-4.85-9.99,9.78-24.14,18.18-17.57,5.31,4.15,12.86-.72,21.52-13.89,5.04-7.66,5.75-8.18,13.03-9.49,3.82-.69,9.59-2.46,12.82-3.94,6.32-2.89,7.62-3.2,7.62-1.78,0,.5,1.58,3.3,3.5,6.23,4.49,6.81,4.21,11.54-.93,15.81-5.89,4.89,9.15,9.75,17.09,5.53,2.56-1.36,5.2-2.47,5.88-2.47,2.53,0,3.74-2.79,2.62-6.02-.68-1.96-.73-3.93-.14-5.49,1.41-3.71-10.33-15.49-15.43-15.49-8.96,0-10.07-2.51-5.08-11.43,2.5-4.47,3.51-7.52,3.52-10.66.03-5.29,2.46-10.96,7.78-18.1,6.31-8.48,6.44-8.89,5.21-17.58-.71-5.06-.8-12.54-.25-21.72l.83-14,5.05-7.5c2.78-4.12,5.79-8.73,6.71-10.23,3.04-4.98,11.99-7.94,17.06-5.62,2.16.98,2.98.79,5.8-1.36,1.81-1.38,5.58-3.67,8.39-5.09,6.54-3.31,10.29-11.06,10.37-21.44.05-6.5,10.29-11.74,17.72-9.05,2.83,1.02,3.78.94,6.28-.53,2.36-1.4,4.21-1.61,9.4-1.08,7.07.72,12.45-2.27,10.98-6.1-.38-.99.36-2.65,1.94-4.31,1.41-1.48,2.86-3.9,3.22-5.37.8-3.22,3.06-5.34,6.6-6.18,5.27-1.25,7.52-4,5.19-6.33-2.89-2.89-19.15-6.71-22.74-5.34-10.91,4.15-20.6-1.61-12.51-7.43l5.15-3.7-.71-8.54c-.39-4.7-1.3-9.95-2.02-11.66-1.58-3.75-.57-6.16,2.96-7.04,2.81-.7,5.59-5.25,6.49-10.59.74-4.39,2.87-4.88,6.82-1.56,6.41,5.39,15.28.3,21.18-12.15,6.73-14.22,16.75-18.21,32.06-12.77,4.12,1.47,9.84,3.03,12.69,3.47,2.86.44,5.66,1.1,6.23,1.45,1.53.94,16.88,1.81,19.67,1.11,3.31-.83,5.55-6.37,6.48-16.06.72-7.46,1-8.2,4.23-11,9.41-8.17,20.21-22.03,23.13-29.7,1.64-4.3,2.27-4.8,12.29-9.92,6.24-3.19,11.19-6.41,12.12-7.89.86-1.38,3.5-4.62,5.86-7.21,5.4-5.91,6.02-14.89,1.94-27.82-2.43-7.68-6.39-20.93-7.33-24.47-.64-2.41-10.77-25.38-16.9-38.31-4.18-8.81-4.41-9.77-4.41-18.11,0-9.63-3.65-16.86-9.66-19.15-4.63-1.76-13.82-1.14-16.7,1.12-3.42,2.69-4.64,1.79-4.64-3.44,0-4.41,1.68-7.06,6.47-10.2,5.57-3.65,7.07-16.55,2.03-17.46-2.31-.42-2.92-.99-2.64-2.51.2-1.08.65-5.84,1-10.57.65-8.76,1.18-10.03,6.28-14.95,2.44-2.36,2.69-3.39,3.34-14,1-16.3.73-17.94-3.48-20.63-21.53-13.78-25.53-17.49-23.92-22.11.57-1.64.9-5.18.73-7.85l-.31-4.86-7.16-.29c-12.48-.51-11.26-17.21,1.26-17.21,4.57,0,6.1-3.39,3.9-8.67-1.99-4.76-1.88-6.61.46-8.07,1.07-.67,2.24-2.74,2.59-4.61l.64-3.39,8.55-.69c5.61-.46,8.92-.33,9.61.37,3.21,3.21,8.97-2.54,8.43-8.41-.23-2.53-.93-3.2-4.66-4.5-6.93-2.41-10.81-7.86-9.16-12.87,1.89-5.73.73-8.38-3.33-7.61-4.07.76-5.62-2.04-5.62-10.14,0-4.52-.44-5.94-2.48-7.97-2.95-2.95-4.52-5.7-4.52-7.92,0-.89-1.35-4.34-3-7.67-1.8-3.63-3-7.62-3-9.98,0-2.17-.86-5.62-1.91-7.68-1.34-2.63-2.07-6.71-2.43-13.71-.62-11.82.07-9.85-4.32-12.43-2.78-1.64-4.56-2.01-7.39-1.53-4.74.8-6.94-1.88-6.95-8.48,0-2.49-.65-9.25-1.44-15.03-3.7-27.25-10.63-45.16-19.53-50.5-7.71-4.63-10.02-7.82-10.02-13.85,0-24.52,32.75-39.04,76.69-34.02l5.19.59,1.65-3.86c.91-2.12,2.29-6.33,3.08-9.36.79-3.02,3.65-10.23,6.37-16s5.2-12.3,5.54-14.5c.73-4.81,1.31-5.6,8.9-11.97,4.68-3.93,6.88-5.08,10.5-5.5,4.13-.48,4.69-.85,5.66-3.87.59-1.84,2.51-4.46,4.25-5.82,4.64-3.63,4.14-6.1-2.87-14.22-8.71-10.09-9.56-10.16-17.44-1.36l-4.7,5.25-8.16-.04c-5.18-.02-9.07-.56-10.66-1.46-1.49-.85-5.33-1.44-9.54-1.46-4.37-.02-10.25-.96-15.5-2.46-13.04-3.74-14.82-3.88-32.83-2.55-25.99,1.92-31.2.38-46.4-13.71-7.98-7.4-13.81-8.98-17.73-4.8-3.15,3.35-8.44,3.36-12.97.02-1.85-1.36-5.85-3.2-8.91-4.09s-6.84-2.7-8.42-4.02c-2.51-2.11-3.86-2.41-11-2.41-8,0-8.19-.06-11.85-3.63-4.53-4.42-8.35-4.17-10.03.66-1.44,4.14-5.24,4.12-6.69-.04-1.48-4.24-4.15-3.97-4.15.43,0,3.78-2.13,6.57-5,6.57s-5-2.82-5-6.92c0-5.01-3.7-10.58-7.04-10.58h0Zm33.92,16.67c.81-.06,1.62.2,2.82.76,1.54.71,6.63,1.62,11.3,2.03,6.81.59,9.28,1.26,12.39,3.39,2.14,1.46,5.13,2.66,6.65,2.66s5.1,1.58,7.96,3.5c6.23,4.2,12.61,4.74,17.5,1.5,4.57-3.02,5.83-2.59,15.78,5.46,16.64,13.46,23.49,15.15,49.45,12.19,14.38-1.64,12.2-1.89,34.27,3.85,3.02.79,8.2,1.46,11.5,1.5,3.63.04,6.77.65,7.94,1.54,1.41,1.07,4.73,1.47,12.18,1.47h10.24l4.73-5c5.6-5.91,6.05-5.99,10.21-1.7,4.51,4.65.39,13.62-7,15.25-6.76,1.48-18.35,13.59-19.76,20.63-.76,3.82-2.58,8.32-4.56,11.33-3.12,4.74-5,9.58-7.49,19.31-1.86,7.24-3.37,8.07-13.51,7.44-19.55-1.22-42.9,3.43-54.07,10.77-11.24,7.38-10.68,6.77-16.79,18.49-6.18,11.84-1.68,26.67,9.09,29.94,2.68.81,8.63,8.77,10.14,13.56.61,1.92,2.02,6.32,3.14,9.77s2.48,9.42,3.03,13.27c.55,3.85,1.43,8.9,1.97,11.23.54,2.33.99,7.2,1,10.83.04,12.15,3.33,17.61,10.89,18.1,5.59.36,7.33,3.05,7.6,11.74.11,3.47.99,7.13,2.35,9.77,1.25,2.41,2.18,6.04,2.18,8.51s.94,6.09,2.36,8.79c1.3,2.47,3.15,6.97,4.12,9.99.97,3.03,2.83,6.65,4.14,8.05,1.76,1.89,2.38,3.72,2.39,7,.02,5.53,2.35,12.4,5.45,16.09,1.3,1.54,2.65,4.14,3.01,5.76s1.32,3.52,2.15,4.2c6.92,5.74,4.81,9.71-5.37,10.1l-7.56.29-1.38,4c-.76,2.2-2.53,5.07-3.95,6.38-2.32,2.15-2.5,2.88-1.94,7.5.61,4.96.52,5.2-2.91,7.92-4.88,3.86-9.5,12.2-9.53,17.2-.01,2.2-.43,4.65-.94,5.44q-.94,1.49-10.56-1.78c-1.65-.56-5.52-1.73-8.59-2.59-3.91-1.1-6.55-2.63-8.77-5.07-1.75-1.92-3.85-3.5-4.67-3.5s-3.58-.98-6.13-2.18l-4.65-2.19-3.09,3.57c-3.89,4.5-6.44,5.79-11.38,5.79-3.4,0-4.79.8-10.47,6-9.69,8.88-16.34,8.79-20.09-.25-1.51-3.66-1.69-3.75-6.77-3.75-5.97,0-12.52-3.24-15.68-7.75-3.92-5.6-7.96-13.86-8.66-17.75-.93-5.15-1.77-6.08-8.55-9.5-7.61-3.84-8.15-4.68-7.8-12.09.35-7.34-.07-7.64-11.23-7.81l-6.53-.1-5.91-5.98c-5.53-5.59-6.03-5.87-7.7-4.37-1.65,1.5-2,1.38-4.93-1.77-1.73-1.86-7.71-5.89-13.28-8.94-7.5-4.12-10.52-6.35-11.63-8.63-.91-1.87-2.79-3.54-4.78-4.27-1.81-.66-4.17-2.14-5.25-3.3q-1.97-2.11-1.97,2.38c0,6.9-3.27,8.82-8.29,4.87-2.4-1.89-3.69-4.7-5.14-11.23-1.19-5.37-7.72-2.95-13.09,4.85-3.05,4.43-4.31,5.44-7.33,5.9-2.01.3-6.25,1.91-9.42,3.58-5.32,2.79-6.05,2.93-9.26,1.77-3.37-1.22-3.61-1.14-6.95,2.31-7.11,7.32-25.89,6.12-23.24-1.48.76-2.18.71-7.19-.16-17.63-1.41-16.84-1.18-17.93,5.36-25.21,13.24-14.72,3.6-29.12-21.08-31.51-9.12-.88-13.35,3.1-14.3,13.47-.73,8.01-.88,8.24-6.8,10.53-5.24,2.02-6.39,1.6-9.2-3.41-2.72-4.83-4.96-6.32-11.92-7.93-3.7-.85-6.38-2.27-8.72-4.61-2.56-2.56-4.23-3.38-6.89-3.38-5.16,0-6.45-2.71-8.01-16.94-1.44-13.06-2.09-14.59-6.71-15.6-2.25-.49-3.41-1.6-4.54-4.31-.84-2-2.57-4.88-3.85-6.4-7.31-8.69-1.5-18.88,13.28-23.27,4.46-1.32,5.26-1.99,6.67-5.52,3.89-9.71,1.45-12.97-9.7-12.99-9.55-.02-10.26-.35-13.15-6.13-1.2-2.39-3.01-5.74-4.03-7.44-2.91-4.83,4.35-11.42,12.58-11.42,3.93,0,5.91-1.87,5.91-5.59,0-9.61-8.39-15.25-15.98-10.77-3.66,2.16-6.02,1.19-6.02-2.46,0-3.08,2.64-6.19,5.26-6.19,4.67,0,5.93-6.34,3.29-16.49-2.14-8.2,2.3-12.51,12.89-12.51,4.65,0,6.19-.94,9.54-5.84q2.29-3.34,8.9-2.68c3.66.36,8.68.19,11.22-.38,2.97-.67,5.77-.71,7.88-.1,5.31,1.52,9.09-1.3,11.04-8.24.84-3,1.54-3.75,3.45-3.75,6.03,0,10.53-3.58,10.53-8.38,0-3.7,1.14-5.38,5.82-8.58,1.83-1.25,3.73-3.36,4.23-4.68,1.38-3.63,3.31-3.8,9.54-.86,3.51,1.66,6.66,2.49,8.26,2.19,1.42-.27,4.36.21,6.52,1.08,3.75,1.5,4.12,1.47,8.24-.72,2.45-1.3,5.04-2.01,6-1.64,3.09,1.18,8.07-1.33,10.79-5.45,1.44-2.18,2.95-3.99,3.35-4.04,7.25-.81,17.2-.45,19.44.7,4.05,2.08,8.44,1.68,13.38-1.22,4.33-2.54,4.55-2.56,8.45-1,6.4,2.56,17.14,2.16,20.64-.76,1.55-1.3,3.82-2.68,5.03-3.05,1.21-.38,3.36-2.13,4.76-3.89,1.41-1.76,3.05-3.79,3.66-4.53.6-.73,2.06-1.1,3.23-.82s3.87-.09,5.98-.83c2.8-.98,4.63-1.07,6.75-.34,4.8,1.68,19.38-.58,24.92-3.85,1.23-.73,2.05-1.11,2.87-1.17Zm-95.56,297.12c1.22-.23,2.15.84,3.46,3.07,4.06,6.88,8.25,8.96,16.89,8.41,9.59-.62,23.5,5.64,31.8,14.3,3.99,4.16,5.3,4.93,8.42,4.93s4.46.77,8.07,4.46c4.2,4.28,4.64,4.47,10.96,4.75l6.58.29.62,5.05c.85,6.94,2.36,8.92,9.66,12.67,4.69,2.41,6.43,3.88,6.82,5.76,3.08,14.91,15.14,28.94,25.8,30.01,4.72.48,5.24.8,7.35,4.64,5.52,10.03,15.45,10.16,25.96.33,3.94-3.68,7.25-5.96,8.66-5.96,3.62,0,11.27-2.94,13.2-5.06,2.69-2.97,6.88-2.44,11.19,1.42,4.82,4.32,8.34,6.01,15.75,7.57,6.1,1.28,13.11,4.69,15.45,7.51,1.8,2.17,5.48,1.94,9.93-.62,5.65-3.25,7.29-2.14,6.52,4.44-.82,6.99,10,17.91,26.35,26.61,3.92,2.08,2.5,21.12-1.93,25.87-5.06,5.43-5.12,5.7-7.44,32-.53,6.01-.45,6.28,2.04,7.22,3.59,1.36,3.26,2.47-1.78,5.94-4.8,3.31-5.63,5.49-5.63,14.81,0,10.32,6.41,14.68,15.28,10.38,11-5.33,15.72-1.3,15.72,13.43,0,6.76.39,8.05,5.88,19.6,12.36,25.99,16,35.47,23.38,60.87.56,1.92,1.22,6.6,1.47,10.39l.45,6.89-4.59,4.4c-2.52,2.42-4.59,4.81-4.59,5.32s-4.92,3.44-10.94,6.52c-10.56,5.4-11,5.76-12.69,10.29-3.58,9.62-17.68,26.99-26.19,32.27-2.02,1.25-2.37,2.44-2.81,9.43q-.91,14.54-15.25,12.01c-9.36-1.66-12.79-2.6-22.12-6.06-16.22-6.01-30.77,1.02-39.89,19.26-1.71,3.42-3.98,6.68-5.04,7.25-2.29,1.22-1.62,1.33-6.57-1.02-2.2-1.04-6.03-1.91-8.5-1.93-11.39-.09-23.64-8.49-32.87-22.52-2.53-3.85-8-10.6-12.16-15-4.15-4.4-9.48-10.36-11.85-13.24-2.71-3.31-5.99-5.99-8.9-7.28-2.53-1.12-7.33-4.57-10.66-7.67-13.35-12.4-16.71-15.82-18.68-19-1.7-2.75-2.66-3.32-5.61-3.32-1.96,0-5.5-.97-7.87-2.15-3.99-1.99-4.85-2.07-11.3-1-13.2,2.18-15.21,1.79-19.06-3.72-2.33-3.34-2.43-3.37-8.2-2.77l-5.84.61v-3.27c0-2.67-1.1-4.36-6-9.2-3.87-3.83-6-6.75-6-8.24,0-14.31-16.71-31.52-23.71-24.43-2.08,2.11-7.84,5.99-12.79,8.61-11.4,6.05-12.15,6.73-15.7,14.35-3.82,8.2-8.12,10.74-13.13,7.77-1.74-1.04-4.83-2.82-6.85-3.96l-3.68-2.07-4.32,2.19c-2.38,1.21-5.56,2.99-7.08,3.97-3.38,2.18-4.87,1.43-9.55-4.79-6.46-8.58-4.84-7.9-18.99-7.9h-12.82l-2.94-3.12c-6.34-6.74-8.29-6.75-23.18-.21-3.38,1.49-7.64-.16-15.11-5.83-5.19-3.94-23.45-.47-31.72,6.04-3.6,2.83-4.05,2.72-6.03-1.45-5.09-10.73-13.44-12.74-22.46-5.4-4.18,3.4-19.04,3.98-24.92.98-17.67-9.02-62.83-11.36-70.85-3.68-1.62,1.55-6.17,3.79-10.74,5.28-5.49,1.79-9.59,3.94-13.3,6.99-2.95,2.42-5.88,4.41-6.5,4.42-14.55.23-21.89,2.59-24.61,7.94-1.36,2.67-4.24,5.4-9.19,8.72-11.61,7.77-19.22,15.53-18.57,18.92,1.55,8.11-3.86,7.53-7.79-.84-3.36-7.16-4.89-37.08-2.46-48.09.63-2.84,1.56-8.76,2.08-13.16,1.83-15.65,2.63-20.05,4.3-23.82,2.4-5.41,3.45-11.14,5.05-27.48,1.68-17.13,1.75-17.26,13.48-24.7,5.19-3.29,9.3-6.62,9.69-7.85.37-1.18,3.65-5.11,7.28-8.73,9.26-9.24,10.05-11.85,11.54-38.2l1.2-21.21,5.61-9c3.09-4.95,6.7-10.35,8.02-12,4.35-5.41,9.99-14.85,13.87-23.21,4.38-9.45,6.31-10.47,22.29-11.76,4.63-.37,9.84-1.51,12.5-2.72,2.51-1.14,7.49-3.42,11.07-5.07,33.36-15.36,33-15.24,33-10.99,0,12.2,7.51,24.81,21.65,36.37,4.07,3.32,8.92,8.42,10.78,11.33,3.95,6.18,6.97,9.19,14.75,14.71,8.36,5.93,11.14,10.65,10.93,18.51-.1,3.8.39,7.39,1.24,9.06.78,1.52,1.97,7.72,2.64,13.77,1.37,12.33,1.05,11.71,10.17,19.57,4.69,4.04,8.26,6.21,12.06,7.31,4.42,1.29,5.97,2.37,8.57,5.99,5.95,8.28,11.31,10.92,20.74,10.18,15.33-1.19,39.13-10.08,42.03-15.69.77-1.49,3.54-4.43,6.16-6.53,2.62-2.11,8.37-6.94,12.77-10.75,24.91-21.55,24.05-19.62,22.98-52.08-.42-12.65-.87-30.65-1-40-.14-10.06-.76-18.84-1.52-21.5-.7-2.47-1.38-7.65-1.5-11.5s-.55-9.54-.96-12.65l-.75-5.65,4.54-2.01c4.81-2.13,6.71-4.53,6.71-8.48s3.42-6.33,7.41-4.89c4.86,1.76,12.51-.08,16.15-3.88,2.38-2.49,3.61-2.95,7.88-2.98,3.59-.02,6.23-.75,9.06-2.5,2.57-1.59,5.49-2.47,8.19-2.47,3.8,0,4.59-.47,8.41-5,2.49-2.95,4-4.48,5.22-4.71Zm-24.24,304.71c1.48,0,8.92,15.95,8.92,19.11,0,2.38,1.33,4.45,6,9.31,5.15,5.36,6,6.78,6,9.99,0,6.95,7.61,11.86,12.56,8.12,2.73-2.06,2.99-1.97,5.38,2.08l2.13,3.61,13.72-.34c9.57-.24,14.38.03,15.9.89,1.2.68,3.51,1.23,5.12,1.23,2.43,0,5.36,2.37,16.82,13.59,9.84,9.63,15.35,14.25,18.93,15.86,3.22,1.45,6.28,3.86,8.45,6.66,1.87,2.42,6.84,8.02,11.04,12.46,4.2,4.44,10.04,11.64,12.98,16,2.93,4.36,6.26,8.59,7.4,9.4,1.14.81,4.18,3.42,6.75,5.82,2.57,2.39,6.84,5.17,9.48,6.18,7.53,2.86,8.7,8.41,2.32,11.05-6.34,2.63-8.42,8.22-5.6,15.12.76,1.85,1.7,5.6,2.09,8.31l.71,4.94-5.59,5.16c-12,11.08-1.68,22.06,18.92,20.14,3.58-.33,6.68-.19,7,.32.74,1.2-3.22,8.99-4.57,8.99-.57,0-1.68,1.56-2.48,3.47-1.39,3.34-1.65,3.47-6.7,3.47-20.5-.01-23.71.72-31.92,7.32-4.27,3.43-5.44,6.06-6.27,14.08-.72,7.02-2.74,11.27-5.8,12.22-1.24.39-3.5,1.57-5,2.63-2.15,1.52-3.68,1.79-7.08,1.28-5.62-.84-15.86,3.56-19.99,8.6-12.08,14.74-15.8,22.64-15.84,33.7-.02,4.8-.1,12.33-.19,16.73s.2,9.82.64,12.04c.76,3.84.54,4.4-4.72,11.5-6.01,8.11-8.58,14.16-8.58,20.18,0,11.35-10.9,21.27-26.06,23.71-8.96,1.44-10.41,2.63-20.26,16.49-4.59,6.47-4.97,6.75-8,6.12-9.46-1.96-10.28-1.87-17.35,2.01-10.67,5.86-13.52,9.77-14.54,19.93-.28,2.76-.68,3.05-5.13,3.68-6.08.86-13.45,5.3-22.28,13.41-9.32,8.56-14.68,8.66-24.87.46-4.28-3.44-3.38-3.37-17.79-1.47-3.47.46-5.75.17-8.34-1.06-4.31-2.04-13.42-.87-19.06,2.46-4.41,2.6-17.63,2.9-21.09.48-2.14-1.5-2.19-1.95-1.58-13.31.72-13.38-.79-20.27-5.34-24.35-4.24-3.8-6.29-6.08-9.63-10.69-2.4-3.32-4.52-4.91-8.58-6.44-3.21-1.21-7.67-4.13-11-7.2-3.08-2.84-6.61-5.69-7.85-6.34s-2.25-1.98-2.25-2.95c0-2.42-1.95-4.16-4.67-4.16-1.36,0-3.15-1.2-4.48-2.98-1.24-1.67-4.21-3.73-6.78-4.69-2.52-.94-6.09-3-7.95-4.6-2.94-2.52-4.04-2.85-8.47-2.56-4.76.31-5.19.14-6.48-2.53-2.15-4.44-1.05-20.52,1.75-25.58.75-1.35,1.4-5.7,1.46-9.73.1-6.6.35-7.45,2.62-8.98,6.06-4.09,10.73-10.05,11.35-14.48,1.03-7.34-2.51-22.83-5.79-25.33-1.48-1.12-5.82-4.97-9.66-8.54s-8.25-7.04-9.79-7.7c-2.12-.9-3.36-2.63-5-7.03-3.82-10.2-9.31-13.15-16.12-8.64l-3.98,2.63-11.02-1.31c-9.97-1.19-11.74-1.14-18.62.48-7.57,1.78-9.28,1.47-9.35-1.7-.05-2.45-6.69-4.73-12.06-4.14-6.17.68-15.39-3.35-25.67-11.23-6.25-4.79-15.97-9.37-19.9-9.37-2.78,0-3.3-.49-4.87-4.61-2.26-5.92-6.81-11.08-10.49-11.89-5.23-1.15-8.01-8.24-8.06-20.54-.02-5.89-.64-10.14-2.03-13.97-2.44-6.72-4.16-12.48-7.61-25.5-1.46-5.5-3.71-11.61-5.01-13.58-7.64-11.61-7.88-55.03-.32-59.18,7.62-4.19,12.8-11.02,13.47-17.76.49-4.95-.05-4.3,8.35-10.04,3.67-2.51,7.88-6.33,9.34-8.49,3.09-4.55,4.84-5.21,14.16-5.34,7.7-.11,9.48-.83,15.33-6.17,2.95-2.7,6.27-4.41,11.5-5.97,4.13-1.23,9.08-3.56,11.31-5.32,8.03-6.36,46.52-4.86,61.88,2.4l8.68,4.11,11.65-.72c11.45-.71,11.72-.78,15.45-4.15,4.98-4.5,6.79-3.83,10.89,4,5.64,10.78,8.53,11.87,14.54,5.47,3.26-3.46,5.58-4.76,12.48-7.01,10.63-3.45,9.09-3.65,18.97,2.43l8.41,5.18,6.04-2.29c13.06-4.96,12.85-4.95,17.92-.28l4.51,4.15,11.54-.62,11.54-.62,2.77,3.31c11.21,13.39,13.62,14.44,21.75,9.54,7.28-4.38,7.81-4.39,14.25-.05,8.74,5.89,19.31,1.14,23.64-10.63,2.13-5.78,17.94-16.87,24.05-16.87.73,0,1.9-.67,2.58-1.5s1.62-1.5,2.08-1.5h0Z"/>
        <path id="lt" class="cls-2"
              d="m366.39,1065.08c8.83-8.11,16.2-12.55,22.28-13.41,4.45-.63,4.86-.92,5.13-3.68,1.01-10.16,3.87-14.07,14.54-19.93,7.06-3.88,7.89-3.98,17.35-2.01,3.03.63,3.41.34,8-6.13,9.84-13.86,11.3-15.05,20.26-16.49,15.16-2.44,26.06-12.36,26.06-23.71,0-6.02,2.57-12.07,8.58-20.18,5.26-7.1,5.49-7.66,4.72-11.5-.44-2.22-.73-7.64-.64-12.04s.18-11.93.19-16.73c.04-11.05,3.75-18.96,15.83-33.69,4.13-5.04,14.37-9.44,19.99-8.6,3.4.51,4.93.23,7.08-1.28,1.51-1.06,3.76-2.25,5-2.63,3.06-.95,5.08-5.21,5.8-12.22.82-8.02,1.99-10.65,6.27-14.08,8.21-6.59,11.42-7.33,31.92-7.32,5.05,0,5.3-.13,6.7-3.47.8-1.91,1.91-3.47,2.48-3.47,1.35,0,5.32-7.8,4.58-8.99-.32-.52-3.42-.66-7-.32-20.6,1.92-30.91-9.06-18.92-20.14l5.59-5.16-.71-4.94c-.39-2.72-1.33-6.46-2.09-8.31-2.82-6.9-.74-12.49,5.6-15.12,6.38-2.64,5.21-8.19-2.32-11.05-2.64-1-6.91-3.78-9.48-6.18-2.57-2.39-5.61-5.01-6.75-5.82-1.14-.81-4.47-5.04-7.41-9.4s-8.77-11.56-12.98-16-9.17-10.04-11.04-12.46c-2.17-2.8-5.23-5.21-8.45-6.66-3.58-1.61-9.09-6.22-18.93-15.86-11.46-11.22-14.39-13.59-16.82-13.59-1.62,0-3.92-.55-5.12-1.23-1.52-.86-6.33-1.13-15.9-.89l-13.72.34-2.13-3.61c-2.39-4.04-2.64-4.14-5.37-2.08-4.95,3.74-12.56-1.17-12.56-8.12,0-3.21-.85-4.63-6-9.99-4.67-4.86-6-6.93-6-9.31,0-3.16-7.45-19.11-8.92-19.11-.46,0-1.39.67-2.08,1.5s-1.85,1.5-2.58,1.5c-6.11,0-21.92,11.09-24.05,16.87-4.34,11.77-14.9,16.51-23.64,10.63-6.43-4.33-6.96-4.33-14.25.05-8.13,4.9-10.54,3.84-21.75-9.55l-2.77-3.31-11.53.62-11.53.62-4.51-4.16c-5.07-4.67-4.86-4.67-17.92.28l-6.04,2.29-8.41-5.18c-9.89-6.08-8.34-5.89-18.97-2.43-6.9,2.24-9.22,3.54-12.48,7-6.02,6.39-8.9,5.31-14.54-5.47-4.1-7.83-5.91-8.5-10.89-4-3.74,3.38-4,3.45-15.45,4.15l-11.65.72-8.68-4.11c-15.36-7.26-53.86-8.76-61.88-2.4-2.23,1.76-7.17,4.09-11.31,5.32-5.23,1.56-8.55,3.28-11.5,5.97-5.85,5.34-7.63,6.06-15.33,6.17-9.31.14-11.07.8-14.16,5.34-1.47,2.16-5.67,5.98-9.34,8.49-8.39,5.74-7.85,5.09-8.35,10.04-.67,6.74-5.85,13.57-13.47,17.76-7.56,4.16-7.32,47.58.32,59.18,1.29,1.97,3.55,8.08,5.01,13.58,3.45,13.02,5.17,18.78,7.61,25.5,1.39,3.82,2.01,8.08,2.03,13.97.05,12.3,2.83,19.39,8.06,20.54,3.67.81,8.22,5.97,10.49,11.89,1.57,4.11,2.09,4.61,4.87,4.61,3.93,0,13.65,4.58,19.9,9.37,10.28,7.88,19.49,11.91,25.67,11.23,5.37-.6,12.01,1.68,12.06,4.14.06,3.17,1.78,3.48,9.35,1.7,6.88-1.62,8.65-1.67,18.62-.48l11.02,1.31,3.98-2.63c6.81-4.51,12.31-1.56,16.12,8.64,1.65,4.4,2.88,6.13,5,7.03,1.55.66,5.96,4.12,9.79,7.69,3.84,3.57,8.18,7.42,9.66,8.54,3.28,2.5,6.82,17.99,5.79,25.33-.62,4.43-5.29,10.39-11.35,14.48-2.26,1.53-2.51,2.38-2.61,8.98-.06,4.03-.72,8.38-1.46,9.73-2.8,5.05-3.9,21.14-1.75,25.58,1.29,2.67,1.72,2.84,6.48,2.53,4.43-.29,5.54.05,8.47,2.56,1.86,1.59,5.43,3.66,7.95,4.6,2.57.95,5.54,3.01,6.78,4.69,1.32,1.79,3.12,2.98,4.48,2.98,2.72,0,4.67,1.74,4.67,4.16,0,.97,1.01,2.3,2.25,2.95s4.77,3.51,7.85,6.34c3.33,3.07,7.79,5.98,11,7.2,4.07,1.54,6.18,3.12,8.58,6.44,3.34,4.61,5.39,6.89,9.63,10.69,4.55,4.08,6.06,10.97,5.34,24.35-.61,11.36-.56,11.81,1.58,13.31,3.46,2.42,16.68,2.12,21.09-.48,5.64-3.33,14.75-4.5,19.06-2.46,2.59,1.23,4.88,1.52,8.34,1.06,14.4-1.9,13.5-1.97,17.79,1.47,10.19,8.2,15.55,8.1,24.87-.46h0Z"/>
        <path id="lv" class="cls-2"
              d="m608.1,756.35c1.07-.57,3.34-3.83,5.04-7.25,9.11-18.24,23.66-25.27,39.89-19.26,9.34,3.46,12.76,4.39,22.12,6.06q14.33,2.55,15.25-12.01c.44-6.99.79-8.18,2.81-9.43,8.51-5.27,22.61-22.64,26.19-32.26,1.69-4.53,2.13-4.89,12.69-10.29,6.02-3.08,10.94-6.01,10.94-6.52s2.06-2.9,4.59-5.32l4.59-4.4-.45-6.89c-.25-3.79-.91-8.46-1.47-10.39-7.38-25.4-11.02-34.88-23.38-60.87-5.49-11.55-5.88-12.85-5.88-19.6,0-14.72-4.72-18.75-15.72-13.43-8.87,4.3-15.28-.06-15.28-10.38,0-9.33.83-11.51,5.63-14.81,5.04-3.47,5.37-4.58,1.78-5.94-2.49-.95-2.56-1.21-2.04-7.23,2.32-26.31,2.38-26.58,7.44-32,4.43-4.75,5.85-23.78,1.93-25.86-16.36-8.7-27.17-19.63-26.35-26.61.77-6.58-.87-7.69-6.52-4.44-4.44,2.56-8.13,2.79-9.93.62-2.34-2.82-9.36-6.23-15.45-7.51-7.42-1.56-10.93-3.24-15.75-7.57-4.31-3.86-8.5-4.4-11.19-1.42-1.92,2.13-9.58,5.06-13.2,5.06-1.41,0-4.72,2.28-8.66,5.96-10.5,9.82-20.43,9.7-25.95-.33-2.11-3.84-2.63-4.17-7.35-4.64-10.66-1.08-22.72-15.11-25.8-30.01-.39-1.88-2.13-3.35-6.82-5.76-7.3-3.74-8.81-5.73-9.66-12.67l-.62-5.05-6.58-.29c-6.32-.28-6.76-.47-10.96-4.75-3.62-3.68-5.02-4.46-8.07-4.46s-4.43-.77-8.42-4.93c-8.3-8.66-22.21-14.92-31.8-14.3-8.64.55-12.83-1.53-16.89-8.41-2.64-4.47-3.71-4.26-8.69,1.64-3.82,4.53-4.61,5-8.41,5.01-2.7,0-5.62.88-8.19,2.47-2.84,1.75-5.47,2.47-9.06,2.49-4.28.03-5.5.49-7.89,2.98-3.64,3.8-11.29,5.64-16.15,3.88-3.99-1.44-7.41.82-7.41,4.89s-1.9,6.35-6.71,8.48l-4.54,2.01.75,5.65c.41,3.11.85,8.8.97,12.65.12,3.85.79,9.03,1.5,11.5.76,2.66,1.38,11.44,1.52,21.5.13,9.35.58,27.35,1,40,1.07,32.46,1.93,30.53-22.98,52.08-4.4,3.81-10.14,8.64-12.77,10.75-2.62,2.11-5.4,5.04-6.16,6.53-2.9,5.61-26.7,14.5-42.03,15.69-9.43.73-14.79-1.9-20.74-10.18-2.6-3.63-4.15-4.71-8.58-5.99-3.8-1.11-7.37-3.27-12.06-7.31-9.12-7.86-8.8-7.24-10.17-19.57-.67-6.05-1.86-12.24-2.64-13.76-.85-1.67-1.35-5.27-1.24-9.06.22-7.87-2.57-12.58-10.93-18.51-7.79-5.52-10.8-8.53-14.75-14.71-1.86-2.91-6.71-8.01-10.78-11.33-14.14-11.55-21.65-24.16-21.65-36.37,0-4.26.36-4.38-33,10.99-3.58,1.65-8.56,3.93-11.07,5.07-2.66,1.21-7.87,2.34-12.5,2.72-15.98,1.29-17.91,2.31-22.29,11.76-3.88,8.36-9.52,17.81-13.87,23.21-1.33,1.65-4.94,7.05-8.02,12l-5.61,9-1.2,21.21c-1.49,26.35-2.28,28.96-11.54,38.2-3.63,3.63-6.91,7.56-7.28,8.73-.39,1.23-4.5,4.56-9.69,7.85-11.73,7.44-11.8,7.56-13.48,24.7-1.6,16.35-2.65,22.08-5.05,27.48-1.67,3.77-2.47,8.17-4.3,23.82-.52,4.4-1.45,10.32-2.08,13.16-2.43,11.02-.91,40.94,2.46,48.09,3.93,8.37,9.34,8.95,7.79.84-.65-3.39,6.97-11.14,18.57-18.92,4.94-3.31,7.83-6.05,9.19-8.72,2.73-5.35,10.06-7.71,24.61-7.94.62-.01,3.55-2,6.5-4.42,3.71-3.05,7.81-5.2,13.3-6.99,4.57-1.49,9.12-3.72,10.74-5.27,8.02-7.68,53.17-5.34,70.85,3.67,5.88,3,20.74,2.41,24.92-.99,9.02-7.33,17.37-5.33,22.46,5.4,1.98,4.17,2.43,4.28,6.03,1.45,8.27-6.5,26.53-9.98,31.72-6.04,7.47,5.67,11.72,7.31,15.11,5.83,14.9-6.54,16.85-6.52,23.18.21l2.94,3.12h12.82c14.15,0,12.53-.67,18.99,7.91,4.68,6.22,6.17,6.97,9.55,4.79,1.52-.98,4.71-2.77,7.08-3.97l4.32-2.19,3.68,2.08c2.02,1.14,5.1,2.92,6.85,3.96,5.02,2.98,9.32.43,13.13-7.77,3.54-7.61,4.29-8.3,15.69-14.35,4.95-2.63,10.7-6.5,12.79-8.61,7-7.1,23.71,10.11,23.71,24.43,0,1.48,2.13,4.41,6,8.24,4.9,4.85,6,6.54,6,9.2v3.27l5.84-.61c5.77-.6,5.87-.57,8.2,2.77,3.85,5.51,5.86,5.9,19.06,3.72,6.46-1.07,7.32-.99,11.3,1,2.37,1.18,5.91,2.15,7.87,2.15,2.95,0,3.91.57,5.61,3.32,1.96,3.18,5.33,6.6,18.68,19,3.33,3.1,8.13,6.55,10.66,7.67,2.91,1.29,6.18,3.96,8.9,7.28,2.36,2.88,7.69,8.84,11.85,13.24,4.15,4.4,9.63,11.15,12.16,15,9.23,14.03,21.48,22.42,32.87,22.52,2.47.02,6.3.89,8.5,1.93,4.95,2.34,4.28,2.24,6.57,1.02h0Z"/>
        <path id="est" class="cls-2"
              d="m595.75,406.5c5.67-5.2,7.07-6,10.47-6,4.94,0,7.49-1.3,11.38-5.79l3.09-3.57,4.65,2.18c2.56,1.2,5.32,2.18,6.13,2.18s2.92,1.57,4.67,3.5c2.23,2.45,4.87,3.97,8.77,5.07,3.07.86,6.94,2.03,8.59,2.59q9.62,3.27,10.56,1.78c.5-.79.92-3.24.94-5.44.03-5.01,4.65-13.34,9.53-17.2,3.43-2.71,3.52-2.95,2.91-7.92-.57-4.62-.38-5.35,1.94-7.5,1.41-1.31,3.19-4.18,3.95-6.38l1.38-4,7.56-.29c10.18-.39,12.29-4.36,5.37-10.1-.83-.69-1.79-2.58-2.15-4.2s-1.71-4.22-3.01-5.76c-3.11-3.69-5.44-10.56-5.45-16.09-.01-3.28-.64-5.11-2.39-7-1.31-1.41-3.17-5.03-4.14-8.05s-2.82-7.52-4.12-9.99c-1.42-2.7-2.36-6.21-2.36-8.79s-.93-6.09-2.18-8.51c-1.36-2.63-2.25-6.29-2.35-9.77-.27-8.69-2.01-11.38-7.6-11.74-7.57-.49-10.85-5.95-10.89-18.1-.01-3.63-.46-8.51-1-10.83-.54-2.33-1.42-7.38-1.97-11.23s-1.91-9.82-3.03-13.27c-1.12-3.45-2.53-7.85-3.14-9.77-1.51-4.8-7.46-12.75-10.14-13.56-10.77-3.27-15.27-18.09-9.09-29.94,6.12-11.72,5.56-11.11,16.8-18.49,11.17-7.34,34.53-11.99,54.07-10.77,10.14.63,11.65-.2,13.51-7.44,2.49-9.73,4.37-14.56,7.49-19.31,1.98-3.01,3.79-7.52,4.56-11.33,1.41-7.04,13-19.14,19.76-20.63,7.39-1.62,11.51-10.6,7-15.25-4.15-4.29-4.61-4.21-10.21,1.7l-4.73,5h-10.24c-7.46,0-10.77-.4-12.18-1.47-1.18-.89-4.31-1.49-7.94-1.54-3.3-.04-8.47-.71-11.5-1.5-22.07-5.74-19.9-5.49-34.27-3.85-25.95,2.96-32.8,1.27-49.45-12.19-9.95-8.05-11.21-8.48-15.78-5.46-4.89,3.24-11.27,2.7-17.5-1.5-2.86-1.92-6.44-3.5-7.96-3.5s-4.51-1.2-6.65-2.66c-3.12-2.13-5.58-2.81-12.39-3.39-4.67-.4-9.76-1.31-11.3-2.02-2.4-1.11-3.22-1.05-5.68.41-5.54,3.27-20.12,5.52-24.92,3.85-2.11-.74-3.95-.64-6.75.34-2.11.74-4.81,1.12-5.98.84s-2.63.09-3.23.82c-.6.73-2.25,2.77-3.66,4.53-1.41,1.76-3.55,3.51-4.77,3.89s-3.48,1.75-5.03,3.05c-3.5,2.92-14.24,3.32-20.64.76-3.9-1.56-4.12-1.54-8.45,1-4.95,2.9-9.33,3.3-13.39,1.22-2.23-1.15-12.18-1.5-19.44-.7-.4.04-1.91,1.86-3.35,4.04-2.73,4.12-7.7,6.63-10.79,5.45-.96-.37-3.55.34-6,1.64-4.12,2.19-4.49,2.22-8.24.72-2.16-.86-5.09-1.35-6.52-1.08-1.6.31-4.75-.53-8.26-2.19-6.23-2.95-8.16-2.77-9.54.86-.5,1.32-2.41,3.43-4.23,4.68-4.68,3.21-5.82,4.88-5.82,8.58,0,4.8-4.49,8.38-10.53,8.38-1.91,0-2.61.75-3.45,3.75-1.95,6.94-5.73,9.77-11.04,8.25-2.11-.61-4.91-.57-7.88.1-2.54.57-7.57.75-11.22.38q-6.62-.66-8.91,2.68c-3.35,4.89-4.89,5.84-9.54,5.84-10.59,0-15.03,4.31-12.89,12.51,2.64,10.15,1.38,16.49-3.29,16.49-2.62,0-5.26,3.11-5.26,6.19,0,3.66,2.36,4.62,6.02,2.46,7.6-4.49,15.98,1.16,15.98,10.77,0,3.72-1.97,5.58-5.91,5.58-8.23,0-15.49,6.59-12.58,11.42,1.02,1.69,2.83,5.04,4.03,7.44,2.89,5.78,3.6,6.11,13.15,6.13,11.15.02,13.59,3.28,9.7,12.99-1.41,3.53-2.22,4.19-6.67,5.52-14.78,4.39-20.59,14.57-13.28,23.26,1.28,1.52,3.01,4.4,3.85,6.4,1.13,2.71,2.3,3.81,4.55,4.31,4.61,1.01,5.27,2.54,6.71,15.6,1.56,14.23,2.85,16.94,8.01,16.94,2.65,0,4.33.82,6.89,3.38,2.34,2.34,5.02,3.76,8.72,4.61,6.96,1.61,9.2,3.1,11.91,7.93,2.81,5,3.97,5.43,9.2,3.41,5.92-2.29,6.07-2.52,6.8-10.53.95-10.38,5.17-14.36,14.3-13.47,24.68,2.38,34.32,16.79,21.08,31.51-6.54,7.27-6.77,8.37-5.36,25.2.88,10.44.92,15.45.16,17.63-2.65,7.61,16.13,8.81,23.24,1.49,3.35-3.45,3.58-3.52,6.95-2.31,3.21,1.16,3.94,1.02,9.26-1.77,3.18-1.67,7.42-3.28,9.42-3.58,3.02-.46,4.28-1.47,7.33-5.9,5.37-7.8,11.9-10.22,13.09-4.85,1.45,6.53,2.73,9.34,5.14,11.23,5.02,3.95,8.29,2.03,8.29-4.87q0-4.49,1.97-2.38c1.08,1.16,3.44,2.65,5.25,3.3,1.99.72,3.87,2.4,4.78,4.27,1.11,2.28,4.12,4.52,11.63,8.63,5.57,3.06,11.54,7.08,13.27,8.94,2.93,3.15,3.27,3.27,4.93,1.77,1.66-1.5,2.17-1.22,7.69,4.37l5.91,5.98,6.53.1c11.16.17,11.58.46,11.23,7.81-.35,7.42.19,8.25,7.8,12.09,6.78,3.42,7.61,4.35,8.55,9.5.7,3.88,4.74,12.15,8.66,17.75,3.17,4.52,9.71,7.75,15.68,7.75,5.08,0,5.25.09,6.77,3.75,3.75,9.04,10.4,9.13,20.09.25h0Z"/>
    </g>
</svg>