<svg width="50" height="49" viewBox="0 0 50 49" fill="none" xmlns="http://www.w3.org/2000/svg">
<g id="9035473_people_outline_icon 1">
<path id="Vector" d="M39.2579 15.877C38.9718 19.7205 36.0255 22.6814 32.8126 22.6814C29.5997 22.6814 26.6485 19.7215 26.3673 15.877C26.0743 11.8784 28.9425 9.07251 32.8126 9.07251C36.6827 9.07251 39.5509 11.9512 39.2579 15.877Z" stroke="white" stroke-width="5" stroke-linecap="round" stroke-linejoin="round"/>
<path id="Vector_2" d="M32.8126 28.73C26.4483 28.73 20.3282 31.7892 18.795 37.7468C18.5919 38.535 19.1026 39.3147 19.9396 39.3147H45.6866C46.5235 39.3147 47.0313 38.535 46.8312 37.7468C45.298 31.6937 39.1778 28.73 32.8126 28.73Z" stroke="white" stroke-width="5" stroke-miterlimit="10"/>
<path id="Vector_3" d="M19.5313 17.5726C19.3028 20.6422 16.922 23.0597 14.3555 23.0597C11.7891 23.0597 9.40437 20.6431 9.17977 17.5726C8.94637 14.3793 11.2637 12.0969 14.3555 12.0969C17.4473 12.0969 19.7647 14.4378 19.5313 17.5726Z" stroke="white" stroke-width="5" stroke-linecap="round" stroke-linejoin="round"/>
<path id="Vector_4" d="M20.1172 28.919C18.3545 28.1374 16.4131 27.8369 14.3554 27.8369C9.27732 27.8369 4.38474 30.2799 3.15916 35.0383C2.99803 35.6677 3.40623 36.2905 4.0742 36.2905H15.039" stroke="white" stroke-width="5" stroke-miterlimit="10" stroke-linecap="round"/>
</g>
</svg>
