<svg width="50" height="49" viewBox="0 0 50 49" fill="none" xmlns="http://www.w3.org/2000/svg">
<g id="&#208;&#178;&#208;&#181;&#209;&#129;&#209;&#139;">
<path id="Vector" d="M44.157 13.5726H45.4282C46.0302 13.5726 46.6076 13.3411 47.0333 12.929C47.459 12.5169 47.6981 11.9579 47.6981 11.3751C47.6981 10.7922 47.459 10.2333 47.0333 9.82115C46.6076 9.40903 46.0302 9.1775 45.4282 9.1775H39.5491C34.7596 9.1775 36.0988 4.78235 27.2689 4.78235V2.58478C27.2689 2.00195 27.0297 1.44299 26.604 1.03086C26.1783 0.618736 25.601 0.387207 24.9989 0.387207C24.3969 0.387207 23.8196 0.618736 23.3939 1.03086C22.9682 1.44299 22.729 2.00195 22.729 2.58478V4.78235C14.5119 4.78235 14.9432 9.1775 10.6077 9.1775H4.5697C3.96768 9.1775 3.39032 9.40903 2.96463 9.82115C2.53894 10.2333 2.29979 10.7922 2.29979 11.3751C2.29979 11.9579 2.53894 12.5169 2.96463 12.929C3.39032 13.3411 3.96768 13.5726 4.5697 13.5726H5.84086C-0.7646 30.6258 0.0298717 27.6811 0.0298717 31.1532C0.0298717 33.4846 0.986477 35.7204 2.68924 37.3689C4.39201 39.0174 6.70146 39.9435 9.10954 39.9435C11.5176 39.9435 13.8271 39.0174 15.5298 37.3689C17.2326 35.7204 18.1892 33.4846 18.1892 31.1532C18.1892 27.6811 19.0064 30.6698 12.3101 13.3968C17.4855 12.5178 17.5309 9.1775 21.3898 9.1775H22.729V44.3387H15.9193C15.3173 44.3387 14.7399 44.5702 14.3142 44.9823C13.8885 45.3944 13.6494 45.9534 13.6494 46.5362C13.6494 47.1191 13.8885 47.678 14.3142 48.0901C14.7399 48.5023 15.3173 48.7338 15.9193 48.7338H34.0786C34.6806 48.7338 35.258 48.5023 35.6837 48.0901C36.1094 47.678 36.3485 47.1191 36.3485 46.5362C36.3485 45.9534 36.1094 45.3944 35.6837 44.9823C35.258 44.5702 34.6806 44.3387 34.0786 44.3387H27.2689V9.1775H28.6081C32.7167 9.1775 32.3989 12.4299 37.6878 13.3968C30.9234 30.8236 31.8087 27.6811 31.8087 31.1532C31.8087 33.4846 32.7653 35.7204 34.4681 37.3689C36.1708 39.0174 38.4803 39.9435 40.8884 39.9435C43.2964 39.9435 45.6059 39.0174 47.3087 37.3689C49.0114 35.7204 49.968 33.4846 49.968 31.1532C49.968 27.6811 50.7852 30.6478 44.157 13.5726ZM9.10954 35.5484C7.9055 35.5484 6.75077 35.0853 5.89939 34.2611C5.04801 33.4368 4.5697 32.3189 4.5697 31.1532H13.6494C13.6494 32.3189 13.1711 33.4368 12.3197 34.2611C11.4683 35.0853 10.3136 35.5484 9.10954 35.5484ZM5.56847 26.7581L9.10954 17.6382L12.6506 26.7581H5.56847ZM40.8884 17.6382L44.4294 26.7581H37.3473L40.8884 17.6382ZM40.8884 35.5484C39.6843 35.5484 38.5296 35.0853 37.6782 34.2611C36.8268 33.4368 36.3485 32.3189 36.3485 31.1532H45.4282C45.4282 32.3189 44.9499 33.4368 44.0985 34.2611C43.2471 35.0853 42.0924 35.5484 40.8884 35.5484Z" fill="white"/>
</g>
</svg>
